<svg width="32" height="32" viewBox="0 0 32 32" fill="none" xmlns="http://www.w3.org/2000/svg">
<mask id="mask0_1_31" style="mask-type:luminance" maskUnits="userSpaceOnUse" x="3" y="3" width="26" height="26">
<path d="M3.53751 3.53751H28.4625V28.4625H3.53751V3.53751Z" fill="white"/>
</mask>
<g mask="url(#mask0_1_31)">
<mask id="mask1_1_31" style="mask-type:luminance" maskUnits="userSpaceOnUse" x="3" y="3" width="26" height="26">
<path d="M16 3.53751C9.11709 3.53751 3.53751 9.11709 3.53751 16C3.53751 22.8829 9.11709 28.4625 16 28.4625C22.8829 28.4625 28.4625 22.8829 28.4625 16C28.4625 9.11709 22.8829 3.53751 16 3.53751Z" fill="white"/>
</mask>
<g mask="url(#mask1_1_31)">
<mask id="mask2_1_31" style="mask-type:luminance" maskUnits="userSpaceOnUse" x="3" y="3" width="26" height="26">
<path d="M28.48 3.52H3.52V28.48H28.48V3.52Z" fill="white"/>
</mask>
<g mask="url(#mask2_1_31)">
<mask id="mask3_1_31" style="mask-type:luminance" maskUnits="userSpaceOnUse" x="3" y="3" width="26" height="26">
<path d="M3.53751 3.53751H28.4625V28.4625H3.53751V3.53751Z" fill="white"/>
</mask>
<g mask="url(#mask3_1_31)">
<mask id="mask4_1_31" style="mask-type:luminance" maskUnits="userSpaceOnUse" x="3" y="3" width="26" height="26">
<path d="M16 3.53751C9.11709 3.53751 3.53751 9.11709 3.53751 16C3.53751 22.8829 9.11709 28.4625 16 28.4625C22.8829 28.4625 28.4625 22.8829 28.4625 16C28.4625 9.11709 22.8829 3.53751 16 3.53751Z" fill="white"/>
</mask>
<g mask="url(#mask4_1_31)">
<path d="M3.53751 3.53751H28.4625V28.4625H3.53751V3.53751Z" fill="#081099"/>
</g>
</g>
</g>
</g>
</g>
<mask id="mask5_1_31" style="mask-type:luminance" maskUnits="userSpaceOnUse" x="8" y="6" width="16" height="20">
<path d="M8.8 6.13292H23.2V25.8529H8.8V6.13292Z" fill="white"/>
</mask>
<g mask="url(#mask5_1_31)">
<path d="M9.81041 19.6325C9.48166 19.0644 9.235 18.4815 9.07041 17.8833C8.90604 17.2854 8.82375 16.6725 8.82375 16.0446C8.82375 14.0413 9.51895 12.3371 10.9094 10.9317C12.2996 9.52646 13.9965 8.82375 15.9998 8.82375H16.1567L14.7215 7.38854L15.9773 6.13292L19.5652 9.72084L15.9773 13.3088L14.7215 12.0529L16.1567 10.6177H15.9998C14.5048 10.6177 13.234 11.1448 12.1875 12.1988C11.141 13.2527 10.6177 14.5346 10.6177 16.0446C10.6177 16.4333 10.6627 16.8144 10.7523 17.1881C10.8421 17.5619 10.9767 17.9283 11.156 18.2871L9.81041 19.6325ZM16.0221 25.8667L12.4342 22.2785L16.0221 18.6906L17.2779 19.9465L15.8427 21.3817H15.9998C17.4948 21.3817 18.7654 20.8546 19.8119 19.8006C20.8583 18.7467 21.3817 17.4648 21.3817 15.9548C21.3817 15.5663 21.3369 15.185 21.2471 14.8113C21.1575 14.4375 21.0229 14.0713 20.8435 13.7123L22.189 12.3669C22.5179 12.935 22.7646 13.5181 22.929 14.116C23.0933 14.714 23.1756 15.3269 23.1756 15.9548C23.1756 17.9581 22.4804 19.6625 21.0902 21.0677C19.6998 22.4729 18.0029 23.1756 15.9998 23.1756H15.8427L17.2779 24.6108L16.0221 25.8667Z" fill="white"/>
</g>
</svg>
